<?xml version="1.0" encoding="UTF-8"?>
<svg id="Layer_2" data-name="Layer 2" xmlns="http://www.w3.org/2000/svg" viewBox="0 0 227.3 388.15">
  <defs>
    <style>
      .cls-1 {
        fill: #fff;
        stroke-width: 0px;
      }
    </style>
  </defs>
  <g id="Layer_3" data-name="Layer 3">
    <g>
      <path class="cls-1" d="M0,328.64l12.24-39.12h10.62l12.24,39.12h-9.36l-2.4-9.3h-11.94l-2.4,9.3H0ZM14.16,308.84l-.96,3.6h8.34l-.9-3.6c-.56-1.96-1.1-4.04-1.62-6.24-.52-2.2-1.04-4.32-1.56-6.36h-.24c-.48,2.08-.97,4.21-1.47,6.39-.5,2.18-1.03,4.25-1.59,6.21Z"/>
      <path class="cls-1" d="M48.24,329.36c-1.96,0-3.97-.38-6.03-1.14-2.06-.76-3.85-1.76-5.37-3l3.96-5.52c1.36,1.04,2.66,1.82,3.9,2.34,1.24.52,2.5.78,3.78.78s2.28-.22,2.88-.66c.6-.44.9-1.06.9-1.86,0-.48-.17-.91-.51-1.29-.34-.38-.8-.73-1.38-1.05-.58-.32-1.23-.61-1.95-.87s-1.46-.55-2.22-.87c-.92-.36-1.84-.78-2.76-1.26-.92-.48-1.76-1.07-2.52-1.77-.76-.7-1.38-1.52-1.86-2.46-.48-.94-.72-2.03-.72-3.27,0-1.36.27-2.62.81-3.78s1.31-2.14,2.31-2.94c1-.8,2.2-1.43,3.6-1.89,1.4-.46,2.96-.69,4.68-.69,2.28,0,4.28.39,6,1.17,1.72.78,3.22,1.65,4.5,2.61l-3.96,5.28c-1.08-.8-2.14-1.42-3.18-1.86-1.04-.44-2.08-.66-3.12-.66-2.24,0-3.36.78-3.36,2.34,0,.48.16.89.48,1.23s.75.65,1.29.93c.54.28,1.16.55,1.86.81.7.26,1.43.53,2.19.81.96.36,1.91.77,2.85,1.23.94.46,1.8,1.03,2.58,1.71s1.41,1.51,1.89,2.49c.48.98.72,2.15.72,3.51s-.26,2.62-.78,3.78c-.52,1.16-1.3,2.17-2.34,3.03-1.04.86-2.32,1.54-3.84,2.04-1.52.5-3.28.75-5.28.75Z"/>
      <path class="cls-1" d="M66.06,339.68v-40.8h7.2l.6,2.94h.24c1.16-1.04,2.47-1.91,3.93-2.61,1.46-.7,2.97-1.05,4.53-1.05,1.8,0,3.42.36,4.86,1.08,1.44.72,2.66,1.74,3.66,3.06,1,1.32,1.77,2.91,2.31,4.77.54,1.86.81,3.93.81,6.21,0,2.56-.35,4.83-1.05,6.81-.7,1.98-1.64,3.66-2.82,5.04-1.18,1.38-2.52,2.43-4.02,3.15-1.5.72-3.05,1.08-4.65,1.08-1.28,0-2.52-.27-3.72-.81-1.2-.54-2.32-1.31-3.36-2.31l.3,4.74v8.7h-8.82ZM79.62,322.16c1.52,0,2.82-.69,3.9-2.07,1.08-1.38,1.62-3.61,1.62-6.69,0-5.36-1.72-8.04-5.16-8.04-1.72,0-3.42.9-5.1,2.7v12.18c.8.72,1.6,1.22,2.4,1.5.8.28,1.58.42,2.34.42Z"/>
      <path class="cls-1" d="M104.82,294.5c-1.48,0-2.7-.43-3.66-1.29-.96-.86-1.44-1.97-1.44-3.33s.48-2.46,1.44-3.3,2.18-1.26,3.66-1.26,2.75.42,3.69,1.26c.94.84,1.41,1.94,1.41,3.3s-.47,2.47-1.41,3.33c-.94.86-2.17,1.29-3.69,1.29ZM100.44,328.64v-29.76h8.82v29.76h-8.82Z"/>
      <path class="cls-1" d="M117,328.64v-29.76h7.2l.6,5.22h.24c1.08-2.04,2.38-3.54,3.9-4.5,1.52-.96,3.04-1.44,4.56-1.44.84,0,1.53.05,2.07.15.54.1,1.03.25,1.47.45l-1.44,7.62c-.56-.16-1.08-.28-1.56-.36-.48-.08-1.04-.12-1.68-.12-1.12,0-2.29.4-3.51,1.2-1.22.8-2.23,2.22-3.03,4.26v17.28h-8.82Z"/>
      <path class="cls-1" d="M145.26,294.5c-1.48,0-2.7-.43-3.66-1.29-.96-.86-1.44-1.97-1.44-3.33s.48-2.46,1.44-3.3,2.18-1.26,3.66-1.26,2.75.42,3.69,1.26c.94.84,1.41,1.94,1.41,3.3s-.47,2.47-1.41,3.33c-.94.86-2.17,1.29-3.69,1.29ZM140.88,328.64v-29.76h8.82v29.76h-8.82Z"/>
      <path class="cls-1" d="M157.44,328.64v-29.76h7.2l.6,3.78h.24c1.28-1.2,2.68-2.25,4.2-3.15,1.52-.9,3.3-1.35,5.34-1.35,3.24,0,5.59,1.06,7.05,3.18,1.46,2.12,2.19,5.06,2.19,8.82v18.48h-8.82v-17.34c0-2.16-.29-3.64-.87-4.44-.58-.8-1.51-1.2-2.79-1.2-1.12,0-2.08.25-2.88.75-.8.5-1.68,1.21-2.64,2.13v20.1h-8.82Z"/>
      <path class="cls-1" d="M202.38,341.3c-1.76,0-3.39-.15-4.89-.45-1.5-.3-2.82-.75-3.96-1.35s-2.03-1.38-2.67-2.34c-.64-.96-.96-2.1-.96-3.42,0-2.4,1.42-4.4,4.26-6v-.24c-.8-.52-1.46-1.18-1.98-1.98-.52-.8-.78-1.82-.78-3.06,0-1.08.32-2.11.96-3.09.64-.98,1.44-1.81,2.4-2.49v-.24c-1.04-.72-1.97-1.75-2.79-3.09-.82-1.34-1.23-2.89-1.23-4.65s.34-3.37,1.02-4.71c.68-1.34,1.59-2.46,2.73-3.36s2.45-1.57,3.93-2.01,3.02-.66,4.62-.66c1.76,0,3.3.24,4.62.72h10.86v6.42h-4.74c.28.44.51,1,.69,1.68.18.68.27,1.42.27,2.22,0,1.72-.3,3.21-.9,4.47-.6,1.26-1.43,2.3-2.49,3.12-1.06.82-2.3,1.43-3.72,1.83-1.42.4-2.95.6-4.59.6-1.16,0-2.36-.2-3.6-.6-.4.32-.68.64-.84.96-.16.32-.24.74-.24,1.26,0,.76.33,1.32.99,1.68.66.36,1.83.54,3.51.54h4.8c3.68,0,6.49.59,8.43,1.77,1.94,1.18,2.91,3.11,2.91,5.79,0,1.56-.39,2.99-1.17,4.29-.78,1.3-1.89,2.42-3.33,3.36-1.44.94-3.18,1.68-5.22,2.22s-4.34.81-6.9.81ZM203.76,335.78c2,0,3.64-.35,4.92-1.05,1.28-.7,1.92-1.57,1.92-2.61,0-.92-.39-1.54-1.17-1.86-.78-.32-1.91-.48-3.39-.48h-3.06c-1.04,0-1.88-.03-2.52-.09-.64-.06-1.2-.15-1.68-.27-1.08.96-1.62,1.94-1.62,2.94,0,1.12.6,1.97,1.8,2.55,1.2.58,2.8.87,4.8.87ZM203.04,313.88c1.16,0,2.13-.41,2.91-1.23.78-.82,1.17-2.07,1.17-3.75,0-1.56-.39-2.75-1.17-3.57-.78-.82-1.75-1.23-2.91-1.23s-2.13.4-2.91,1.2c-.78.8-1.17,2-1.17,3.6,0,1.68.39,2.93,1.17,3.75.78.82,1.75,1.23,2.91,1.23Z"/>
    </g>
    <g>
      <path class="cls-1" d="M.05,376.6v-32.95h2.3v30.95h15.2v2H.05Z"/>
      <path class="cls-1" d="M31.36,377.2c-1.43,0-2.8-.28-4.1-.85s-2.44-1.38-3.42-2.45c-.98-1.07-1.77-2.38-2.35-3.92s-.88-3.33-.88-5.33.29-3.79.88-5.38c.58-1.58,1.37-2.91,2.35-3.97.98-1.07,2.12-1.88,3.42-2.45,1.3-.57,2.67-.85,4.1-.85s2.81.28,4.12.85c1.32.57,2.47,1.38,3.45,2.45s1.77,2.39,2.35,3.97c.58,1.58.88,3.38.88,5.38s-.29,3.78-.88,5.33c-.58,1.55-1.37,2.86-2.35,3.92-.98,1.07-2.13,1.88-3.45,2.45s-2.69.85-4.12.85ZM31.36,375.25c1.2,0,2.33-.26,3.38-.77,1.05-.52,1.95-1.24,2.7-2.17s1.34-2.05,1.78-3.35c.43-1.3.65-2.73.65-4.3s-.22-3.05-.65-4.35c-.43-1.3-1.03-2.43-1.78-3.38-.75-.95-1.65-1.68-2.7-2.2-1.05-.52-2.17-.78-3.38-.78s-2.32.26-3.35.78-1.92,1.25-2.67,2.2c-.75.95-1.34,2.07-1.78,3.38-.43,1.3-.65,2.75-.65,4.35s.22,3,.65,4.3c.43,1.3,1.03,2.42,1.78,3.35s1.64,1.66,2.67,2.17,2.15.77,3.35.77Z"/>
      <path class="cls-1" d="M57.2,388.15c-3.03,0-5.43-.6-7.2-1.8-1.77-1.2-2.65-2.82-2.65-4.85,0-1.07.32-2.1.95-3.1.63-1,1.5-1.9,2.6-2.7v-.2c-.6-.37-1.1-.87-1.5-1.5-.4-.63-.6-1.42-.6-2.35,0-1.07.3-1.97.9-2.72.6-.75,1.17-1.31,1.7-1.68v-.2c-.77-.67-1.46-1.57-2.08-2.7-.62-1.13-.92-2.43-.92-3.9,0-1.23.22-2.37.65-3.4.43-1.03,1.03-1.93,1.8-2.68s1.67-1.33,2.7-1.75c1.03-.42,2.13-.62,3.3-.62.67,0,1.27.06,1.8.18.53.12.98.26,1.35.42h8.15v1.85h-5.6c.77.67,1.4,1.53,1.9,2.58s.75,2.21.75,3.47-.22,2.37-.65,3.4c-.43,1.03-1.02,1.92-1.77,2.67s-1.63,1.33-2.65,1.75c-1.02.42-2.11.62-3.28.62-.67,0-1.36-.08-2.07-.25-.72-.17-1.36-.42-1.93-.75-.53.43-.99.92-1.38,1.45s-.57,1.2-.57,2c0,.87.32,1.61.95,2.22.63.62,1.85.93,3.65.93h5.15c2.7,0,4.69.44,5.97,1.32s1.92,2.28,1.92,4.18c0,1.03-.27,2.04-.8,3.02s-1.29,1.85-2.28,2.6-2.17,1.35-3.57,1.8c-1.4.45-2.97.67-4.7.67ZM57.45,386.35c1.33,0,2.55-.17,3.65-.53,1.1-.35,2.03-.81,2.8-1.38.77-.57,1.36-1.21,1.77-1.92s.62-1.46.62-2.22c0-1.33-.47-2.28-1.42-2.83s-2.33-.83-4.12-.83h-5.15c-.27,0-.67-.03-1.22-.08s-1.14-.16-1.78-.33c-1.1.77-1.9,1.58-2.4,2.45-.5.87-.75,1.73-.75,2.6,0,1.5.69,2.72,2.08,3.65,1.38.93,3.36,1.4,5.92,1.4ZM56.85,367.2c.83,0,1.62-.16,2.38-.47.75-.32,1.41-.78,1.98-1.38.57-.6,1.02-1.32,1.35-2.15.33-.83.5-1.75.5-2.75s-.17-1.92-.5-2.75c-.33-.83-.77-1.53-1.33-2.1-.55-.57-1.21-1.01-1.97-1.33-.77-.32-1.57-.47-2.4-.47s-1.67.16-2.42.47c-.75.32-1.41.76-1.97,1.33s-1.02,1.26-1.35,2.08-.5,1.74-.5,2.77.17,1.92.5,2.75c.33.83.79,1.55,1.38,2.15.58.6,1.25,1.06,2,1.38.75.32,1.54.47,2.38.47Z"/>
      <path class="cls-1" d="M83.95,376.6v-32.95h2.3v14.45h17.65v-14.45h2.3v32.95h-2.3v-16.5h-17.65v16.5h-2.3Z"/>
      <path class="cls-1" d="M124.4,377.2c-1.43,0-2.8-.28-4.1-.85s-2.44-1.38-3.42-2.45c-.98-1.07-1.77-2.38-2.35-3.92s-.88-3.33-.88-5.33.29-3.79.88-5.38c.58-1.58,1.37-2.91,2.35-3.97.98-1.07,2.12-1.88,3.42-2.45,1.3-.57,2.67-.85,4.1-.85s2.81.28,4.12.85c1.32.57,2.47,1.38,3.45,2.45s1.77,2.39,2.35,3.97c.58,1.58.88,3.38.88,5.38s-.29,3.78-.88,5.33c-.58,1.55-1.37,2.86-2.35,3.92-.98,1.07-2.13,1.88-3.45,2.45s-2.69.85-4.12.85ZM124.4,375.25c1.2,0,2.33-.26,3.38-.77,1.05-.52,1.95-1.24,2.7-2.17s1.34-2.05,1.78-3.35c.43-1.3.65-2.73.65-4.3s-.22-3.05-.65-4.35c-.43-1.3-1.03-2.43-1.78-3.38-.75-.95-1.65-1.68-2.7-2.2-1.05-.52-2.17-.78-3.38-.78s-2.32.26-3.35.78-1.92,1.25-2.67,2.2c-.75.95-1.34,2.07-1.78,3.38-.43,1.3-.65,2.75-.65,4.35s.22,3,.65,4.3c.43,1.3,1.03,2.42,1.78,3.35s1.64,1.66,2.67,2.17,2.15.77,3.35.77Z"/>
      <path class="cls-1" d="M142.4,376.6v-24h1.9l.2,3.7h.15c1.07-1.23,2.26-2.26,3.58-3.08,1.32-.82,2.64-1.23,3.98-1.23,1.93,0,3.42.44,4.45,1.33,1.03.88,1.77,2.08,2.2,3.58,1.4-1.5,2.76-2.69,4.08-3.58,1.32-.88,2.67-1.33,4.08-1.33,4.8,0,7.2,3.07,7.2,9.2v15.4h-2.25v-15.1c0-2.57-.43-4.46-1.3-5.67-.87-1.22-2.22-1.83-4.05-1.83-2.17,0-4.57,1.5-7.2,4.5v18.1h-2.2v-15.1c0-2.57-.43-4.46-1.3-5.67-.87-1.22-2.23-1.83-4.1-1.83-2.17,0-4.57,1.5-7.2,4.5v18.1h-2.2Z"/>
      <path class="cls-1" d="M192.1,377.2c-1.53,0-2.98-.28-4.33-.85s-2.53-1.39-3.53-2.48c-1-1.08-1.79-2.4-2.38-3.95-.58-1.55-.88-3.31-.88-5.28s.29-3.73.88-5.3c.58-1.57,1.37-2.89,2.35-3.98.98-1.08,2.1-1.92,3.35-2.5,1.25-.58,2.54-.88,3.88-.88,2.87,0,5.12.97,6.75,2.9,1.63,1.93,2.45,4.67,2.45,8.2v.9c0,.3-.03.6-.1.9h-17.3c.03,1.5.27,2.89.7,4.17.43,1.28,1.04,2.38,1.83,3.3.78.92,1.72,1.63,2.83,2.15,1.1.52,2.33.78,3.7.78s2.47-.19,3.52-.58c1.05-.38,2.03-.91,2.92-1.58l.9,1.7c-.97.57-2.03,1.1-3.17,1.6-1.15.5-2.61.75-4.38.75ZM183.25,363.1h15.3c0-3.1-.63-5.41-1.9-6.92-1.27-1.52-2.98-2.28-5.15-2.28-1.03,0-2.02.21-2.95.62-.93.42-1.78,1.03-2.53,1.83s-1.37,1.77-1.85,2.9c-.48,1.13-.79,2.42-.93,3.85Z"/>
      <path class="cls-1" d="M212.95,377.2c-1.8,0-3.45-.33-4.95-.97-1.5-.65-2.78-1.42-3.85-2.33l1.3-1.65c1.03.87,2.13,1.59,3.3,2.18,1.17.58,2.62.88,4.35.88,1.9,0,3.33-.48,4.28-1.43.95-.95,1.42-2.06,1.42-3.32,0-.73-.17-1.38-.53-1.95-.35-.57-.81-1.05-1.38-1.45s-1.19-.75-1.88-1.05-1.38-.58-2.07-.85c-.9-.33-1.81-.68-2.73-1.05-.92-.37-1.74-.81-2.47-1.33-.73-.52-1.33-1.13-1.78-1.85s-.67-1.59-.67-2.62c0-.87.17-1.69.5-2.47.33-.78.83-1.47,1.5-2.05.67-.58,1.47-1.04,2.42-1.38.95-.33,2.06-.5,3.33-.5s2.51.23,3.72.7c1.22.47,2.26,1.07,3.12,1.8l-1.2,1.55c-.8-.6-1.65-1.11-2.55-1.53-.9-.42-1.97-.62-3.2-.62-.93,0-1.73.12-2.4.38-.67.25-1.22.58-1.67.97-.45.4-.78.87-1,1.4-.22.53-.33,1.07-.33,1.6,0,.7.16,1.29.47,1.78.32.48.74.91,1.28,1.28s1.14.69,1.83.97c.68.28,1.38.56,2.08.83.93.37,1.87.73,2.8,1.1.93.37,1.77.82,2.52,1.35s1.36,1.19,1.83,1.97.7,1.76.7,2.92c0,.9-.17,1.76-.53,2.58-.35.82-.88,1.53-1.57,2.15-.7.62-1.55,1.11-2.55,1.47s-2.15.55-3.45.55Z"/>
    </g>
    <path class="cls-1" d="M151.75,231.24c-1.55-.97-3.71-1.65-5.16-2.04-.61-.16-.96-.78-.9-1.44.07-.75-.78-1.22-.78-1.22-2.16-.94-4.8-1.33-6.2-1.48-.57-.06-1.11-.31-1.52-.72-2.15-2.16-7.15-3.96-9.11-4.61-.52-.17-.91-.64-.98-1.21v-.03c-.1-.73-.47-1.38-1.03-1.82-2.68-2.08-7.19-3.09-9.31-3.46-.84-.15-1.49-.85-1.61-1.72-.14-1.05-.02-2.11.15-2.92.1-.49.74-.55.93-.09,2.59,6.45,2.15.63,1.88-1.84-.03-.32.34-.49.55-.26,2.95,3.25,3.12,4.16,3.12,4.16,1.21,2.24,1.42.9,1.43-.22,0-.32.39-.46.58-.21,2.22,2.88,2.47,2.61,2.47,2.61.17-.59.06-1.43-.12-2.2-.13-.56.5-.96.92-.6,1.82,1.55,2.08,1.97,2.08,1.97,4.69,2.29,1.5-.83,1.5-.83-1.8-3.12,1.99-.31,1.99-.31,2.66,2.32,4.09,2.96,4.79,3.11.49.11.95.34,1.33.67,2.24,1.99,3.13,2.26,3.45,2.01.55-.45,1.34-.42,1.96-.09,1.11.59,1.74.81,2.06.9.22.06.44.16.64.27,5.85,3.4,1.54-2.39.9-3.24-.05-.07-.1-.13-.16-.19-1.94-1.98-7.17-3.09-9.38-3.49-.52-.09-1.01-.34-1.37-.74-1.21-1.36-4.68-2.34-5.9-2.65-.29-.07-.56-.21-.79-.4-2.12-1.67-4.64-3.27-6.7-4.49-.5-.3-.31-1.11.27-1.11,1.08-.01,1.78-.36,2.46-.72.78-.41,1.71-.29,2.38.29,4.04,3.52,6.38,3.12,7.04,2.88.17-.06.35-.12.53-.15,3.79-.64,7.82.93,10.53,2.36.77.4,1.44-.68.78-1.25-1.57-1.36-3.49-2.56-4.42-3.11-.29-.18-.57-.39-.78-.67-1.93-2.52-9.21-3.68-11.73-4.02-.54-.07-1.04-.34-1.43-.74-3.49-3.58-9.98-5.29-12.07-5.77-.43-.1-.79-.4-.97-.83-.23-.57-.39-1.08-.51-1.53-.36-1.46.12-6.78,1.06-5.65,2.98,3.59,5.43,3.27,6.07,2.52.34-.39.91-.43,1.28-.07,2.42,2.36,3.81,4.25,4.29,3.65.26-.32.71-.35.95,0,1.93,2.79,3.09,2.31,3.67,1.64.27-.32.76-.29,1.01.04,2.18,2.86,3.38,3.77,3.93,2.68.29-.58.91-.91,1.54-.78,2.06.42,3.92.59,5.27.66.96.05,1.39-1.23.63-1.83-.36-.28-.74-.54-1.06-.76-.61-.4-1.29-.65-2-.75-2.22-.31-3.74-.6-4.68-.81-.72-.16-1.39-.48-1.98-.95-5.05-4.07-15.27-9.28-19.34-11.29-.91-.45-.95-1.78-.07-2.3,1.2-.72,2.13-.62,2.13-.62,1.88,1.9,3.04,1.9,3.7,1.55.58-.31,1.28-.26,1.86.04,1.18.6,2.1.59,2.69.46.53-.12,1.09,0,1.55.29,4.1,2.61,8.48,2.28,10.69,1.86.68-.13.82-1.07.21-1.41-1.34-.74-3.07-.9-4.08-.93-.62-.02-1.2-.29-1.61-.77s-.6-.84-.71-1.11c-.17-.45-.53-.79-.99-.88-4.58-.9-6.74-1.58-7.76-2.05-.43-.2-.61-.69-.54-1.18.19-1.28-4.6-3.48-6.72-4.39-.45-.19-.52-.84-.12-1.12,1.91-1.35,3.02-.66,3.55-.06.33.38.77.62,1.25.71,3.72.72,6.11,2.3,7.13,3.1.38.3.85.43,1.32.37,2.18-.28,2.99.27,3.28.65.2.26.48.44.78.55,4.39,1.69,3.05-.51,2.26-1.54-.16-.21-.31-.42-.39-.67-.26-.81-3.37-2.39-4.92-3.14-.27-.13-.26-.54.02-.65.3-.11.52-.24.68-.37.5-.4.47-1.2-.04-1.58-2.57-1.95-10.87-3.43-12.86-3.77-.3-.05-.58-.18-.83-.36-3.94-3.01-3.76-4.98-3.35-5.85.14-.29.5-.36.74-.15,1.37,1.2,2.23,1,2.66.71.28-.19.63-.27.96-.19,1.6.37,2.52.51,3.03.56.37.04.72.18,1.01.43,2.26,1.92,3.64,2.37,4.38,2.42.38.02.63-.42.43-.76-1.2-2.14-3.82-3.13-4.75-3.42-.22-.07-.41-.19-.56-.36-1.95-2.11-7.61-4.87-8.82-5.45-.16-.08-.29-.22-.36-.39-.44-1.1-.17-2.08.12-2.69.19-.4.64-.57,1.03-.41,4.31,1.76,6.45,2.23,7.45,2.34.38.04.61-.42.36-.72-1.7-2.09-7-4.52-7.91-4.93-.08-.04-.13-.12-.13-.26v-.32c0-.18.19-.29.34-.19.56.36.99.56,1.33.65.59.16,1.05-.52.75-1.06-1.3-2.29-2.22-2.73-2.22-2.73-1.99-1.04-1-2.18-1-2.18.66-.23,1.26-.36,1.73-.43.43-.07.6-.61.3-.93-1.2-1.28-2.73-1.86-2.73-1.86,0,0-1.53.58-2.73,1.86-.3.32-.13.87.3.93.47.07,1.07.2,1.73.43,0,0,1,1.14-1,2.18,0,0-.92.43-2.22,2.73-.31.54.16,1.22.75,1.06.34-.09.77-.29,1.33-.65.15-.1.34.01.34.19v.32c0,.14-.05.22-.13.26-.9.41-6.21,2.84-7.91,4.93-.25.3-.02.76.36.72,1-.11,3.14-.58,7.45-2.34.39-.16.85.01,1.03.41.29.61.56,1.59.12,2.69-.07.17-.19.31-.36.39-1.21.58-6.87,3.34-8.82,5.45-.16.17-.35.29-.56.36-.93.29-3.55,1.29-4.75,3.42-.19.34.05.79.43.76.75-.05,2.12-.5,4.38-2.42.29-.25.64-.39,1.01-.43.51-.05,1.43-.19,3.03-.56.33-.08.67,0,.95.19.43.29,1.29.5,2.66-.71.24-.21.6-.14.74.15.41.87.59,2.84-3.35,5.85-.24.19-.53.31-.83.36-1.99.33-10.29,1.81-12.86,3.77-.51.38-.54,1.18-.04,1.58.16.13.39.26.68.37.28.11.29.52.02.65-1.55.75-4.66,2.33-4.92,3.14-.08.25-.23.47-.39.67-.78,1.03-2.13,3.23,2.26,1.54.3-.12.58-.3.78-.55.29-.37,1.1-.92,3.27-.65.47.06.95-.07,1.33-.37,1.02-.8,3.41-2.38,7.13-3.1.48-.09.92-.34,1.25-.71.52-.6,1.64-1.29,3.54.06.41.29.35.92-.1,1.12-2.11.91-6.91,3.12-6.73,4.39.07.49-.11.98-.54,1.18-1.02.47-3.18,1.15-7.75,2.04-.46.09-.82.43-.99.88-.1.27-.3.64-.69,1.1-.41.49-1,.78-1.63.79-1.02.02-2.75.19-4.08.93-.61.34-.48,1.28.21,1.41,2.21.42,6.6.75,10.7-1.87.46-.29,1.01-.4,1.53-.29.59.13,1.52.15,2.7-.46.59-.3,1.28-.35,1.86-.04.65.35,1.82.35,3.7-1.55,0,0,.92-.1,2.13.62.88.52.84,1.85-.07,2.3-4.07,2.01-14.29,7.22-19.34,11.29-.58.47-1.26.79-1.98.95-.94.21-2.47.51-4.68.81-.71.1-1.39.35-1.99.75-.33.21-.7.47-1.06.76-.77.6-.33,1.87.63,1.83,1.35-.06,3.21-.24,5.27-.66.62-.13,1.24.2,1.54.78.55,1.09,1.75.18,3.93-2.68.25-.33.74-.36,1.01-.04.57.67,1.73,1.16,3.67-1.64.24-.34.69-.32.95,0,.48.6,1.86-1.29,4.29-3.65.37-.36.94-.32,1.28.07.64.74,3.09,1.07,6.07-2.52.95-1.14,1.42,4.19,1.06,5.65-.11.45-.28.96-.51,1.53-.17.42-.53.73-.97.83-2.09.48-8.58,2.19-12.07,5.77-.39.4-.89.67-1.43.74-2.52.33-9.8,1.5-11.73,4.02-.21.28-.48.49-.78.67-.93.55-2.85,1.76-4.42,3.12-.66.57.02,1.65.78,1.25,2.71-1.43,6.74-3,10.53-2.36.18.03.36.09.54.15.66.23,3,.63,7.04-2.88.67-.58,1.6-.7,2.38-.29.68.36,1.39.71,2.46.72.58,0,.77.81.27,1.11-2.06,1.22-4.58,2.82-6.7,4.49-.24.19-.5.32-.79.4-1.22.31-4.69,1.29-5.9,2.65-.36.4-.85.65-1.37.74-2.21.4-7.44,1.51-9.38,3.49-.06.06-.11.12-.16.19-.65.85-4.94,6.63.89,3.24.2-.12.42-.22.65-.28.32-.08.94-.31,2.06-.9.62-.33,1.41-.36,1.96.09.32.26,1.21-.02,3.45-2.01.38-.34.84-.57,1.33-.67.71-.15,2.14-.8,4.79-3.11,0,0,3.79-2.81,1.99.31,0,0-3.19,3.12,1.5.83,0,0,.26-.41,2.08-1.97.43-.36,1.05.04.92.6-.18.77-.29,1.61-.12,2.2,0,0,.25.26,2.47-2.61.19-.25.58-.11.58.21.01,1.12.22,2.46,1.43.22,0,0,.17-.91,3.12-4.16.21-.23.59-.05.55.26-.27,2.47-.71,8.29,1.88,1.84.18-.46.83-.4.93.09.16.81.29,1.87.15,2.92-.12.88-.77,1.58-1.61,1.73-2.12.38-6.64,1.38-9.32,3.47-.56.44-.92,1.09-1.02,1.81v.03c-.08.57-.46,1.04-.98,1.21-1.97.65-6.96,2.45-9.11,4.61-.41.41-.95.66-1.52.72-1.4.15-4.04.53-6.2,1.48,0,0-.85.47-.78,1.22.06.66-.28,1.27-.9,1.44-1.45.39-3.6,1.07-5.16,2.04-.73.45-.38,1.62.46,1.58,1.47-.06,3.56-.31,5.79-1.12.49-.18,1.01-.15,1.49.05.6.25,1.88.35,4.57-.56.48-.16,1.04-.06,1.38.33.3.35.9.47,2.11-.73,0,0,.77-.96,2.64-2.39.43-.33,1.01-.39,1.47-.12.66.38,1.8.61,3.17-.82,0,0,.71-.8,1.85-1.06.68-.16,1.24.53,1.03,1.21-.25.84-.22,1.67,1.41.89,0,0,2.14-2.88,7.01-1.88.55.11,1,.55,1.13,1.12.04.18.08.38.11.6.09.61-.47,1.14-1.04.95-.7-.23-1.74-.27-3.12.45,0,0-1.56.99-5.64,1.88-.48.1-.91.37-1.21.77-.49.67-1.88,1.83-5.78,2.85l-.06.02c-.65.25-29.16,11.65-.58,1.71.36-.12.75-.13,1.13-.1,1.2.08,4.35.02,8-2.31.5-.32,1.12-.37,1.68-.18.76.25,2.22.28,4.87-1.01.78-.38,3.64-.55,4.85-.04.33.14.72.14,1.05,0,1.21-.52,4.07-.34,4.85.04,2.65,1.29,4.11,1.26,4.87,1.01.57-.19,1.2-.12,1.71.21,3.66,2.33,6.82,2.37,7.99,2.29.37-.03.75,0,1.11.11,29.47,9.26.06-1.46-.59-1.71l-.06-.02c-3.9-1.02-5.29-2.17-5.78-2.85-.29-.4-.73-.66-1.21-.77-4.08-.89-5.64-1.88-5.64-1.88-1.4-.73-2.44-.68-3.14-.44-.56.19-1.11-.32-1.02-.93.03-.23.07-.44.11-.63.13-.58.58-1.01,1.14-1.13,4.86-1,7,1.88,7,1.88,1.63.79,1.66-.05,1.41-.89-.21-.69.35-1.37,1.03-1.21,1.14.26,1.85,1.06,1.85,1.06,1.37,1.43,2.51,1.19,3.17.82.47-.27,1.04-.21,1.47.12,1.87,1.43,2.64,2.39,2.64,2.39,1.21,1.2,1.81,1.08,2.11.73.34-.4.9-.5,1.38-.33,2.69.9,3.97.8,4.57.56.48-.2,1-.23,1.49-.05,2.23.81,4.32,1.06,5.79,1.12.85.03,1.19-1.13.46-1.58Z"/>
    <path class="cls-1" d="M118.36,3l99.23,108.89c4.03,4.42,4.36,12.09.73,17.02l-.48.65c-3.58,4.85-9.64,5.21-13.57.8L118.41,34.02c-3.67-4.12-9.26-4.12-12.93,0L20.15,129.76c-3.61,4.05-9.08,4.13-12.76.18h0c-4.4-4.71-4.46-13.15-.12-17.96L105.56,3.04c3.64-4.04,9.14-4.05,12.8-.04Z"/>
    <rect class="cls-1" x="14.2" y="114.29" width="198.81" height="11.34" rx="5.67" ry="5.67"/>
    <rect class="cls-1" x="58.23" y="63.07" width="108.44" height="11.34" rx="5.67" ry="5.67" transform="translate(43.71 181.18) rotate(-90)"/>
    <rect class="cls-1" x="103.74" y="85.35" width="77.16" height="11.34" rx="5.67" ry="5.67" transform="translate(-22.67 127.29) rotate(-45)"/>
    <rect class="cls-1" x="46.72" y="84.51" width="75.06" height="11.34" rx="5.67" ry="5.67" transform="translate(80.05 213.52) rotate(-135)"/>
    <g>
      <circle class="cls-1" cx="39.18" cy="213.01" r="13.46"/>
      <circle class="cls-1" cx="39.18" cy="245.32" r="13.46"/>
      <circle class="cls-1" cx="39.18" cy="148.56" r="13.46"/>
      <circle class="cls-1" cx="39.18" cy="180.88" r="13.46"/>
    </g>
    <path class="cls-1" d="M21.84,152.39H1.11v25.5l21.34.02s2.09-12.13,11.15-13.19c.1-.01.1-.18,0-.19-9.06-1.07-11.77-12.13-11.77-12.13Z"/>
    <g>
      <circle class="cls-1" cx="189.18" cy="213" r="13.59"/>
      <circle class="cls-1" cx="189.18" cy="245.62" r="13.59"/>
      <circle class="cls-1" cx="189.18" cy="147.95" r="13.59"/>
      <circle class="cls-1" cx="189.18" cy="180.57" r="13.59"/>
    </g>
    <path class="cls-1" d="M56.53,152.39h10.73v12.22s0,13.27,0,13.27l-11.34.02s-2.09-12.13-11.15-13.19c-.1-.01-.1-.18,0-.19,9.06-1.07,11.77-12.13,11.77-12.13Z"/>
    <path class="cls-1" d="M21.84,183.19H1.11v25.49l21.34.02s2.09-9.91,11.15-11.15c.1-.01.1-.21,0-.22-9.06-1.24-11.77-14.14-11.77-14.14Z"/>
    <path class="cls-1" d="M56.53,183.19h10.73v14.25s0,11.24,0,11.24l-11.34.02s-2.09-9.91-11.15-11.15c-.1-.01-.1-.21,0-.22,9.06-1.24,11.77-14.14,11.77-14.14Z"/>
    <path class="cls-1" d="M21.84,214.49H1.11v25.49l21.34.02s2.09-9.91,11.15-11.15c.1-.01.1-.21,0-.22-9.06-1.24-11.77-14.14-11.77-14.14Z"/>
    <path class="cls-1" d="M206.57,151.89h20.73v12.22s0,13.27,0,13.27l-21.34.02s-2.09-12.13-11.15-13.19c-.1-.01-.1-.18,0-.19,9.06-1.07,11.77-12.13,11.77-12.13Z"/>
    <path class="cls-1" d="M206.57,182.69h20.73v14.25s0,11.88,0,11.88l-21.34.02s-2.09-10.54-11.15-11.79c-.1-.01-.1-.21,0-.22,9.06-1.24,11.77-14.14,11.77-14.14Z"/>
    <path class="cls-1" d="M206.57,214.24h20.73v15s0,11.24,0,11.24l-21.34.02s-2.09-9.91-11.15-11.15c-.1-.01-.1-.21,0-.22,9.06-1.24,11.77-14.89,11.77-14.89Z"/>
    <path class="cls-1" d="M56.53,214.49h10.73v14.25s0,11.24,0,11.24l-11.34.02s-2.09-9.91-11.15-11.15c-.1-.01-.1-.21,0-.22,9.06-1.24,11.77-14.14,11.77-14.14Z"/>
    <path class="cls-1" d="M171.42,153.14h-10.73v12.22s0,13.27,0,13.27l11.34.02s2.09-12.13,11.15-13.19c.1-.01.1-.18,0-.19-9.06-1.07-11.77-12.13-11.77-12.13Z"/>
    <path class="cls-1" d="M171.42,183.94h-10.73v14.25s0,10.63,0,10.63l11.34.02s2.09-9.29,11.15-10.54c.1-.01.1-.21,0-.22-9.06-1.24-11.77-14.14-11.77-14.14Z"/>
    <path class="cls-1" d="M171.42,214.24h-10.73v14.25s0,11.24,0,11.24l11.34.02s2.09-9.91,11.15-11.15c.1-.01.1-.21,0-.22-9.06-1.24-11.77-14.14-11.77-14.14Z"/>
    <path class="cls-1" d="M33.96,262.06c-2.58-1.22-12.16-6.02-11.79-15.78H1.11v16.1h32.77c.18,0,.24-.24.08-.32Z"/>
    <path class="cls-1" d="M44.78,262.06c2.58-1.22,12.16-6.02,11.79-15.78h10.69v16.1h-22.4c-.18,0-.24-.24-.08-.32Z"/>
    <rect class="cls-1" x="67.26" y="246.32" width="97.4" height="16.06"/>
    <path class="cls-1" d="M194.45,262.06c2.58-1.22,12.16-6.02,11.79-15.78h21.06v16.1h-32.77c-.18,0-.24-.24-.08-.32Z"/>
    <path class="cls-1" d="M183.17,262.06c-2.58-1.22-12.16-6.02-11.79-15.78h-10.69v16.1h22.4c.18,0,.24-.24.08-.32Z"/>
  </g>
</svg>