<?xml version="1.0" encoding="UTF-8"?>
<svg id="Layer_2" data-name="Layer 2" xmlns="http://www.w3.org/2000/svg" viewBox="0 0 94.76 73.8">
  <defs>
    <style>
      .cls-1 {
        fill: #545da9;
        stroke: #545da9;
        stroke-miterlimit: 10;
        stroke-width: 2px;
      }
    </style>
  </defs>
  <g id="Layer_1-2" data-name="Layer 1">
    <path class="cls-1" d="M85.19,72.8H9.57c-4.73,0-8.56-3.84-8.57-8.56V9.56c0-4.73,3.84-8.56,8.57-8.56h75.62c4.73,0,8.56,3.84,8.57,8.56v54.67c0,4.73-3.84,8.56-8.57,8.56ZM7.25,11.7v52.53c0,1.28,1.04,2.31,2.32,2.31h75.62c1.28,0,2.31-1.04,2.32-2.31V11.7l-34.78,35.28c-2.98,2.87-7.69,2.88-10.67.02L7.25,11.7ZM11.64,7.25l34.85,35.34c.2.3.54.48.91.48s.7-.19.89-.49L83.12,7.25H11.64Z"/>
  </g>
</svg>