<?xml version="1.0" encoding="UTF-8"?>
<svg id="Layer_2" data-name="Layer 2" xmlns="http://www.w3.org/2000/svg" viewBox="0 0 68.75 90.25">
  <defs>
    <style>
      .cls-1 {
        fill: #545da9;
        stroke-width: 0px;
      }
    </style>
  </defs>
  <g id="Layer_1-2" data-name="Layer 1">
    <path class="cls-1" d="M34.38,90.25c-2.98,0-5.78-1.41-7.53-3.82C16.82,72.85,0,48.02,0,34.38,0,22.09,6.55,10.75,17.19,4.61c10.64-6.14,23.74-6.14,34.38,0s17.19,17.49,17.19,29.77c0,13.65-16.82,38.48-26.84,52.06-1.75,2.41-4.55,3.82-7.53,3.82h0ZM34.38,5.94c-7.5.05-14.67,3.07-19.94,8.4-5.27,5.33-8.21,12.54-8.18,20.04,0,8.66,9.34,26.28,25.62,48.35.6.77,1.52,1.21,2.5,1.21s1.9-.45,2.5-1.21c16.28-22.07,25.62-39.69,25.62-48.35.03-7.5-2.91-14.7-8.18-20.03-5.27-5.33-12.44-8.35-19.94-8.4h0ZM34.38,49.66c-4.97,0-9.74-1.98-13.26-5.49-3.52-3.52-5.49-8.29-5.49-13.26s1.98-9.74,5.49-13.26c3.52-3.52,8.29-5.49,13.26-5.49s9.74,1.98,13.26,5.49c3.52,3.52,5.49,8.29,5.49,13.26,0,4.97-1.98,9.74-5.5,13.25s-8.28,5.49-13.25,5.5h0ZM34.38,18.41c-5.05,0-9.61,3.05-11.55,7.71-1.94,4.67-.87,10.05,2.71,13.62,3.57,3.57,8.95,4.64,13.62,2.71,4.67-1.93,7.71-6.49,7.71-11.55,0-3.32-1.32-6.5-3.66-8.84s-5.52-3.66-8.84-3.66h0Z"/>
  </g>
</svg>