<?xml version="1.0" encoding="UTF-8"?>
<svg id="Layer_2" data-name="Layer 2" xmlns="http://www.w3.org/2000/svg" viewBox="0 0 90 90">
  <defs>
    <style>
      .cls-1 {
        fill: #545da9;
        stroke-width: 0px;
      }
    </style>
  </defs>
  <g id="Layer_1-2" data-name="Layer 1">
    <path class="cls-1" d="M45,0C20.1,0,0,20.1,0,45s20.1,45,45,45,45-20.1,45-45S69.9,0,45,0ZM45,80.8c-19.7,0-35.8-16.1-35.8-35.8S25.3,9.2,45,9.2s35.8,16.1,35.8,35.8-16.1,35.8-35.8,35.8ZM59.6,53.1c1.8,1.8,1.8,4.7,0,6.5-.9.9-2.1,1.3-3.3,1.3s-2.4-.4-3.3-1.3l-11.2-11.3c-.8-.8-1.4-2-1.4-3.3v-23c0-2.5,2.1-4.6,4.6-4.6s4.6,2.1,4.6,4.6v21.1l10,10Z"/>
  </g>
</svg>